<?xml version="1.0" encoding="UTF-8" standalone="no"?>
<!-- Created with Inkscape (http://www.inkscape.org/) -->

<svg
   width="164mm"
   height="164mm"
   viewBox="0 0 164 164"
   version="1.1"
   id="svg1"
   xml:space="preserve"
   sodipodi:docname="logo.svg"
   inkscape:version="1.3.2 (091e20e, 2023-11-25, custom)"
   xmlns:inkscape="http://www.inkscape.org/namespaces/inkscape"
   xmlns:sodipodi="http://sodipodi.sourceforge.net/DTD/sodipodi-0.dtd"
   xmlns="http://www.w3.org/2000/svg"
   xmlns:svg="http://www.w3.org/2000/svg"><sodipodi:namedview
     id="namedview1"
     pagecolor="#505050"
     bordercolor="#eeeeee"
     borderopacity="1"
     inkscape:showpageshadow="0"
     inkscape:pageopacity="0"
     inkscape:pagecheckerboard="0"
     inkscape:deskcolor="#505050"
     inkscape:document-units="mm"
     inkscape:zoom="0.95506383"
     inkscape:cx="340.81492"
     inkscape:cy="330.34441"
     inkscape:window-width="2560"
     inkscape:window-height="1369"
     inkscape:window-x="2552"
     inkscape:window-y="-8"
     inkscape:window-maximized="1"
     inkscape:current-layer="g2"><inkscape:page
       x="0"
       y="0"
       width="164"
       height="164"
       id="page1"
       margin="0 0 0"
       bleed="0" /></sodipodi:namedview><defs
     id="defs1" /><style
     type="text/css"
     id="style1">
<![CDATA[
	.st0{fill:#000000;}
]]>
</style><g
     id="g15"
     transform="translate(-794.4715,673.37683)"><path
       id="path1-7-6-6-9-8-6-2"
       style="fill:#333333;fill-opacity:1;stroke:none;stroke-width:8;stroke-linecap:round;stroke-dasharray:none;stroke-opacity:0.985011;paint-order:stroke fill markers"
       d="m 511.13748,-657.45212 c -25.0082,-8e-5 -45.28147,17.52172 -45.28147,45.28148 0,27.75975 40.89305,87.91401 45.28147,87.91401 4.38842,0 45.28147,-60.15426 45.28147,-87.91401 0,-27.75976 -20.27326,-45.28156 -45.28147,-45.28148 z" /><circle
       style="fill:#56f485;fill-opacity:1;stroke-width:5.82083;stroke-linecap:round;paint-order:stroke fill markers"
       id="path5-0-09-0"
       cx="511.13745"
       cy="-612.17065"
       r="25.631145" /><path
       id="path7-6-87-4"
       style="fill:#56f485;fill-opacity:1;stroke:#ffffff;stroke-width:36.9584;stroke-linecap:round;stroke-linejoin:round;stroke-dasharray:none;stroke-opacity:0;paint-order:stroke fill markers"
       d="m 8.4182954,514.41027 c 0,0 10.8342696,0.69979 20.3279946,0.0863 9.493725,-0.61343 23.864436,-3.26839 23.864436,-3.26839 0,0 17.573412,57.1195 50.977264,45.54626 28.60909,-9.91217 45.94196,-47.6003 56.22339,-80.91679 12.62306,-40.9044 14.36964,-53.9909 18.97056,-127.59997 l 80.90399,1.03046 c 0,0 -19.38882,114.05859 -40.3871,166.64714 -19.99094,50.06577 -44.76343,91.54322 -79.93517,103.1065 -33.55856,11.03296 -62.873726,1.80584 -89.122235,-29.1785 C 27.773059,563.34105 8.4182954,514.41027 8.4182954,514.41027 Z M -23.437674,15.83463 c 0,0 1.628319,-6.4337713 4.568271,-16.51071846 C -10.779072,-28.40641 7.2438976,-83.725483 28.600118,-108.47998 c 43.604211,-50.54267 88.085332,-33.79338 104.882252,-25.14064 24.36186,12.54972 70.24983,52.736235 90.08782,130.0350007 21.19469,82.5851583 29.34889,159.8843293 29.34889,159.8843293 l 37.93169,-3.5e-4 -68.86415,119.27622 -68.86628,-119.27698 38.02999,1.9e-4 c 0,0 0.66242,-60.922867 -31.00752,-153.7677751 C 144.89011,-42.185426 123.02836,-77.488731 90.43312,-79.045057 57.292908,-80.627403 40.013505,-38.586105 31.651975,-20.337716 23.646849,-2.8670843 18.656037,10.1345 18.656037,10.1345 c 0,0 -12.8839274,0.417172 -22.1483837,1.75322 -9.2644563,1.336048 -19.9453273,3.94691 -19.9453273,3.94691 z"
       transform="matrix(0.062057,0.23159987,0.18875725,-0.05057735,460.35469,-604.45927)" /><g
       id="g2"><rect
         style="display:inline;fill:#ffffff;fill-opacity:1;stroke:none;stroke-width:35;stroke-linecap:round;stroke-linejoin:round;stroke-miterlimit:50;stroke-dasharray:none;stroke-opacity:1;paint-order:stroke markers fill"
         id="rect2"
         width="164"
         height="164"
         x="794.4715"
         y="-673.37683"
         ry="23.032785"
         inkscape:export-filename="logo64x64.png"
         inkscape:export-xdpi="9.9121952"
         inkscape:export-ydpi="9.9121952" /><g
         id="g3"
         transform="translate(-1.3062969,0.76033395)"><circle
           style="fill:#0083ff;fill-opacity:1;stroke:none;stroke-width:5.82084;stroke-linecap:round;stroke-opacity:0;paint-order:stroke fill markers"
           id="path5-0-09-0-5"
           cx="876.75085"
           cy="-613.45331"
           r="26.484934" /><path
           id="path1-7-6-6-9-8-6-2-4"
           style="fill:#333333;fill-opacity:1;stroke:none;stroke-width:8;stroke-linecap:round;stroke-dasharray:none;stroke-opacity:0.985011;paint-order:stroke fill markers"
           d="m 876.7508,-658.73491 c -25.00817,-8e-5 -45.28147,17.52174 -45.28147,45.28147 0,27.75972 40.89305,87.91402 45.28147,87.91402 4.38842,0 45.28147,-60.1543 45.28147,-87.91402 0,-27.75973 -20.27328,-45.28155 -45.28147,-45.28147 z m 0,21.70823 a 23.57317,23.57317 0 0 1 23.57324,23.57324 23.57317,23.57317 0 0 1 -23.57324,23.57324 23.57317,23.57317 0 0 1 -23.57324,-23.57324 23.57317,23.57317 0 0 1 23.57324,-23.57324 z" /><path
           id="path7-6-87-4-5"
           style="fill:#0083ff;fill-opacity:1;stroke:none;stroke-width:8.00001;stroke-linecap:round;stroke-linejoin:round;stroke-dasharray:none;stroke-opacity:0;paint-order:stroke fill markers"
           d="m 923.58916,-629.80974 c 0,0 0.80443,2.47382 1.27779,4.70359 0.47336,2.22978 0.86402,5.69231 0.86402,5.69231 0,0 11.87227,1.18105 11.76068,9.50272 -0.0956,7.12719 -6.13388,13.04765 -11.78457,17.11389 -6.93766,4.99233 -9.29944,6.05872 -22.90817,10.84724 l 5.21517,18.68524 c 0,0 20.32617,-10.25923 28.94955,-17.78222 8.2097,-7.16209 14.50156,-14.99722 14.50156,-23.72783 10e-6,-8.33017 -3.56088,-14.65288 -11.03831,-19.16492 -6.40058,-3.86225 -16.83772,-5.87002 -16.83772,-5.87002 z m -96.08665,17.83879 c 0,0 -1.11337,0.70253 -2.83303,1.89308 -4.73223,3.27625 -14.05566,10.24826 -17.40295,16.44637 -6.83434,12.65505 -0.91243,22.10973 1.7632,25.56227 3.88068,5.00747 14.31385,13.60259 30.13563,14.2875 16.90383,0.73175 32.00063,-1.28933 32.00063,-1.28933 l 2.35386,8.78499 18.24075,-21.9816 -26.78803,-9.91671 2.36007,8.80773 c 0,0 -11.45853,3.23474 -30.94902,0.59583 -9.3869,-1.27093 -17.40733,-4.54856 -19.72386,-12.0189 -2.35526,-7.59524 4.50803,-13.72348 7.43366,-16.58297 2.80093,-2.7376 4.94536,-4.55106 4.94536,-4.55106 0,0 -0.7208,-3.00502 -1.04353,-5.21824 -0.32274,-2.21322 -0.49274,-4.81896 -0.49274,-4.81896 z" /></g></g><rect
       style="display:inline;fill:#f5f5f5;fill-opacity:1;stroke:#f5f5f5;stroke-width:35;stroke-linecap:round;stroke-linejoin:round;stroke-miterlimit:50;stroke-dasharray:none;stroke-opacity:1;paint-order:stroke markers fill"
       id="rect2-1"
       width="127.47964"
       height="127.47964"
       x="1051.9561"
       y="-658.73492" /><path
       id="path1-7-6-6-9-8-6-2-4-3"
       style="fill:#333333;fill-opacity:1;stroke:none;stroke-width:8;stroke-linecap:round;stroke-dasharray:none;stroke-opacity:0.985011;paint-order:stroke fill markers"
       d="m 1115.6959,-658.73491 c -25.0082,-8e-5 -45.2815,17.52174 -45.2815,45.28147 0,27.75972 40.8931,87.91402 45.2815,87.91402 4.3884,0 45.2815,-60.1543 45.2815,-87.91402 0,-27.75973 -20.2733,-45.28155 -45.2815,-45.28147 z m 0,21.70823 a 23.57317,23.57317 0 0 1 23.5732,23.57324 23.57317,23.57317 0 0 1 -23.5732,23.57324 23.57317,23.57317 0 0 1 -23.5732,-23.57324 23.57317,23.57317 0 0 1 23.5732,-23.57324 z" /><circle
       style="fill:#0083ff;fill-opacity:1;stroke:none;stroke-width:5.82083;stroke-linecap:round;stroke-opacity:0;paint-order:stroke fill markers"
       id="path5-0-09-0-5-6"
       cx="1115.6959"
       cy="-613.45331"
       r="23.57317" /><path
       id="path7-6-87-4-5-4"
       style="fill:#0083ff;fill-opacity:1;stroke:none;stroke-width:8.00001;stroke-linecap:round;stroke-linejoin:round;stroke-dasharray:none;stroke-opacity:0;paint-order:stroke fill markers"
       d="m 1162.5343,-629.80976 c 0,0 0.8044,2.47382 1.2778,4.70359 0.4733,2.22978 0.864,5.69231 0.864,5.69231 0,0 11.8723,1.18105 11.7607,9.50272 -0.096,7.12719 -6.1339,13.04765 -11.7846,17.11389 -6.9376,4.99233 -9.2994,6.05872 -22.9082,10.84724 l 5.2152,18.68524 c 0,0 20.3262,-10.25923 28.9496,-17.78222 8.2097,-7.16209 14.5015,-14.99722 14.5015,-23.72783 0,-8.33017 -3.5608,-14.65288 -11.0383,-19.16492 -6.4006,-3.86225 -16.8377,-5.87002 -16.8377,-5.87002 z m -96.0867,17.83879 c 0,0 -1.1134,0.70253 -2.833,1.89308 -4.7323,3.27625 -14.0557,10.24826 -17.403,16.44637 -6.8343,12.65505 -0.9124,22.10973 1.7632,25.56227 3.8807,5.00747 14.3139,13.60259 30.1357,14.2875 16.9038,0.73175 32.0006,-1.28933 32.0006,-1.28933 l 2.3539,8.78499 18.2407,-21.9816 -26.788,-9.91671 2.3601,8.80773 c 0,0 -11.4586,3.23474 -30.9491,0.59583 -9.3869,-1.27093 -17.4073,-4.54856 -19.7239,-12.0189 -2.3552,-7.59524 4.5081,-13.72348 7.4337,-16.58297 2.8009,-2.7376 4.9454,-4.55106 4.9454,-4.55106 0,0 -0.7208,-3.00502 -1.0436,-5.21824 -0.3227,-2.21322 -0.4927,-4.81896 -0.4927,-4.81896 z" /><rect
       style="display:inline;fill:#ffffff;fill-opacity:0;stroke:#ffffff;stroke-width:35;stroke-linecap:round;stroke-linejoin:round;stroke-miterlimit:50;stroke-dasharray:none;stroke-opacity:0;paint-order:stroke markers fill"
       id="rect2-1-4"
       width="127.47964"
       height="127.47964"
       x="1287.3832"
       y="-655.87683" /><path
       id="path1-7-6-6-9-8-6-2-4-3-8"
       style="fill:#333333;fill-opacity:1;stroke:none;stroke-width:8;stroke-linecap:round;stroke-dasharray:none;stroke-opacity:0.985011;paint-order:stroke fill markers"
       d="m 1350.0837,-658.73491 c -25.0082,-8e-5 -45.2815,17.52174 -45.2815,45.28147 0,27.75972 40.8931,87.91402 45.2815,87.91402 4.3884,0 45.2814,-60.1543 45.2814,-87.91402 0,-27.75973 -20.2733,-45.28155 -45.2814,-45.28147 z m 0,21.70823 a 23.57317,23.57317 0 0 1 23.5732,23.57324 23.57317,23.57317 0 0 1 -23.5732,23.57324 23.57317,23.57317 0 0 1 -23.5733,-23.57324 23.57317,23.57317 0 0 1 23.5733,-23.57324 z" /><circle
       style="fill:#0083ff;fill-opacity:1;stroke:none;stroke-width:5.82083;stroke-linecap:round;stroke-opacity:0;paint-order:stroke fill markers"
       id="path5-0-09-0-5-6-1"
       cx="1350.0835"
       cy="-613.45331"
       r="23.57317" /><path
       id="path7-6-87-4-5-4-8"
       style="fill:#0083ff;fill-opacity:1;stroke:none;stroke-width:8.00001;stroke-linecap:round;stroke-linejoin:round;stroke-dasharray:none;stroke-opacity:0;paint-order:stroke fill markers"
       d="m 1396.9219,-629.80979 c 0,0 0.8044,2.47382 1.2778,4.70359 0.4733,2.22978 0.864,5.69231 0.864,5.69231 0,0 11.8723,1.18105 11.7607,9.50272 -0.096,7.12719 -6.1339,13.04765 -11.7846,17.11389 -6.9376,4.99233 -9.2994,6.05872 -22.9082,10.84724 l 5.2152,18.68524 c 0,0 20.3262,-10.25923 28.9496,-17.78222 8.2097,-7.16209 14.5015,-14.99722 14.5015,-23.72783 0,-8.33017 -3.5608,-14.65288 -11.0383,-19.16492 -6.4006,-3.86225 -16.8377,-5.87002 -16.8377,-5.87002 z m -96.0867,17.83879 c 0,0 -1.1134,0.70253 -2.833,1.89308 -4.7323,3.27625 -14.0557,10.24826 -17.403,16.44637 -6.8343,12.65505 -0.9124,22.10973 1.7632,25.56227 3.8807,5.00747 14.3139,13.60259 30.1357,14.2875 16.9038,0.73175 32.0006,-1.28933 32.0006,-1.28933 l 2.3539,8.78499 18.2407,-21.9816 -26.788,-9.91671 2.3601,8.80773 c 0,0 -11.4586,3.23474 -30.9491,0.59583 -9.3869,-1.27093 -17.4073,-4.54856 -19.7239,-12.0189 -2.3552,-7.59524 4.5081,-13.72348 7.4337,-16.58297 2.8009,-2.7376 4.9454,-4.55106 4.9454,-4.55106 0,0 -0.7208,-3.00502 -1.0436,-5.21824 -0.3227,-2.21322 -0.4927,-4.81896 -0.4927,-4.81896 z" /><rect
       style="display:inline;fill:#ffffff;fill-opacity:0;stroke:#ffffff;stroke-width:35;stroke-linecap:round;stroke-linejoin:round;stroke-miterlimit:50;stroke-dasharray:none;stroke-opacity:0;paint-order:stroke markers fill"
       id="rect2-1-4-3"
       width="127.47964"
       height="127.47964"
       x="1287.3832"
       y="-447.82175" /><path
       id="path1-7-6-6-9-8-6-2-4-3-8-9"
       style="fill:#333333;fill-opacity:1;stroke:none;stroke-width:8;stroke-linecap:round;stroke-dasharray:none;stroke-opacity:0.985011;paint-order:stroke fill markers"
       d="m 1350.0837,-450.67984 c -25.0082,-8e-5 -45.2815,17.52174 -45.2815,45.28147 0,27.75972 40.8931,87.91402 45.2815,87.91402 4.3884,0 45.2814,-60.1543 45.2814,-87.91402 0,-27.75973 -20.2733,-45.28155 -45.2814,-45.28147 z m 0,21.70823 a 23.57317,23.57317 0 0 1 23.5732,23.57324 23.57317,23.57317 0 0 1 -23.5732,23.57324 23.57317,23.57317 0 0 1 -23.5733,-23.57324 23.57317,23.57317 0 0 1 23.5733,-23.57324 z" /><circle
       style="fill:#0083ff;fill-opacity:1;stroke:none;stroke-width:5.82083;stroke-linecap:round;stroke-opacity:0;paint-order:stroke fill markers"
       id="path5-0-09-0-5-6-1-0"
       cx="1350.0835"
       cy="-405.39822"
       r="23.57317" /><path
       id="path7-6-87-4-5-4-8-5"
       style="fill:#0083ff;fill-opacity:1;stroke:none;stroke-width:8.00001;stroke-linecap:round;stroke-linejoin:round;stroke-dasharray:none;stroke-opacity:0;paint-order:stroke fill markers"
       d="m 1396.9219,-421.75472 c 0,0 0.8044,2.47382 1.2778,4.70359 0.4733,2.22978 0.864,5.69231 0.864,5.69231 0,0 11.8723,1.18105 11.7607,9.50272 -0.096,7.12719 -6.1339,13.04765 -11.7846,17.11389 -6.9376,4.99233 -9.2994,6.05872 -22.9082,10.84724 l 5.2152,18.68524 c 0,0 20.3262,-10.25923 28.9496,-17.78222 8.2097,-7.16209 14.5015,-14.99722 14.5015,-23.72783 0,-8.33017 -3.5608,-14.65288 -11.0383,-19.16492 -6.4006,-3.86225 -16.8377,-5.87002 -16.8377,-5.87002 z m -96.0867,17.83879 c 0,0 -1.1134,0.70253 -2.833,1.89308 -4.7323,3.27625 -14.0557,10.24826 -17.403,16.44637 -6.8343,12.65505 -0.9124,22.10973 1.7632,25.56227 3.8807,5.00747 14.3139,13.60259 30.1357,14.2875 16.9038,0.73175 32.0006,-1.28933 32.0006,-1.28933 l 2.3539,8.78499 18.2407,-21.9816 -26.788,-9.91671 2.3601,8.80773 c 0,0 -11.4586,3.23474 -30.9491,0.59583 -9.3869,-1.27093 -17.4073,-4.54856 -19.7239,-12.0189 -2.3552,-7.59524 4.5081,-13.72348 7.4337,-16.58297 2.8009,-2.7376 4.9454,-4.55106 4.9454,-4.55106 0,0 -0.7208,-3.00502 -1.0436,-5.21824 -0.3227,-2.21322 -0.4927,-4.81896 -0.4927,-4.81896 z" /><rect
       style="display:inline;fill:#ffffff;fill-opacity:1;stroke:#ffffff;stroke-width:35;stroke-linecap:round;stroke-linejoin:round;stroke-miterlimit:50;stroke-dasharray:none;stroke-opacity:1;paint-order:stroke markers fill"
       id="rect2-1-4-1"
       width="127.47964"
       height="127.47964"
       x="1506.0725"
       y="-655.87683" /><path
       id="path1-7-6-6-9-8-6-2-4-3-8-8"
       style="fill:#333333;fill-opacity:1;stroke:none;stroke-width:8;stroke-linecap:round;stroke-dasharray:none;stroke-opacity:0.985011;paint-order:stroke fill markers"
       d="m 1568.7726,-658.73491 c -25.0081,-8e-5 -45.2814,17.52174 -45.2814,45.28147 0,27.75972 40.893,87.91402 45.2814,87.91402 4.3884,0 45.282,-60.1543 45.282,-87.91402 0,-27.75973 -20.2738,-45.28155 -45.282,-45.28147 z m 0,21.70823 a 23.57317,23.57317 0 0 1 23.5733,23.57324 23.57317,23.57317 0 0 1 -23.5733,23.57324 23.57317,23.57317 0 0 1 -23.5732,-23.57324 23.57317,23.57317 0 0 1 23.5732,-23.57324 z" /><circle
       style="fill:#0083ff;fill-opacity:1;stroke:none;stroke-width:5.82083;stroke-linecap:round;stroke-opacity:0;paint-order:stroke fill markers"
       id="path5-0-09-0-5-6-1-7"
       cx="1568.7728"
       cy="-613.45331"
       r="23.57317" /><path
       id="path7-6-87-4-5-4-8-6"
       style="fill:#0083ff;fill-opacity:1;stroke:none;stroke-width:8.00001;stroke-linecap:round;stroke-linejoin:round;stroke-dasharray:none;stroke-opacity:0;paint-order:stroke fill markers"
       d="m 1615.6112,-629.8098 c 0,0 0.8044,2.47382 1.2778,4.70359 0.4733,2.22978 0.864,5.69231 0.864,5.69231 0,0 11.8723,1.18105 11.7607,9.50272 -0.096,7.12719 -6.1339,13.04765 -11.7846,17.11389 -6.9376,4.99233 -9.2994,6.05872 -22.9082,10.84724 l 5.2152,18.68524 c 0,0 20.3262,-10.25923 28.9496,-17.78222 8.2097,-7.16209 14.5015,-14.99722 14.5015,-23.72783 0,-8.33017 -3.5608,-14.65288 -11.0383,-19.16492 -6.4006,-3.86225 -16.8377,-5.87002 -16.8377,-5.87002 z m -96.0867,17.83879 c 0,0 -1.1134,0.70253 -2.833,1.89308 -4.7323,3.27625 -14.0557,10.24826 -17.403,16.44637 -6.8343,12.65505 -0.9124,22.10973 1.7632,25.56227 3.8807,5.00747 14.3139,13.60259 30.1357,14.2875 16.9038,0.73175 32.0006,-1.28933 32.0006,-1.28933 l 2.3539,8.78499 18.2407,-21.9816 -26.788,-9.91671 2.3601,8.80773 c 0,0 -11.4586,3.23474 -30.9491,0.59583 -9.3869,-1.27093 -17.4073,-4.54856 -19.7239,-12.0189 -2.3552,-7.59524 4.5081,-13.72348 7.4337,-16.58297 2.8009,-2.7376 4.9454,-4.55106 4.9454,-4.55106 0,0 -0.7208,-3.00502 -1.0436,-5.21824 -0.3227,-2.21322 -0.4927,-4.81896 -0.4927,-4.81896 z" /></g></svg>
